<svg width="16" height="16" viewBox="0 0 16 16" xmlns="http://www.w3.org/2000/svg"><title>Shape</title><path d="M8 0a8 8 0 1 0 0 16A8 8 0 0 0 8 0zm5.534 4.8h-2.236c-.205-1.045-.51-1.969-.885-2.724A6.432 6.432 0 0 1 13.534 4.8zM14.4 8c0 .553-.078 1.088-.21 1.6h-2.662a17.612 17.612 0 0 0 0-3.2h2.661A6.37 6.37 0 0 1 14.4 8zM8 14.4c-.348 0-1.188-1.116-1.66-3.2h3.32c-.472 2.084-1.312 3.2-1.66 3.2zM6.082 9.6a15.754 15.754 0 0 1 0-3.2h3.836a15.754 15.754 0 0 1 0 3.2H6.082zM1.6 8c0-.553.078-1.088.21-1.6h2.662a17.612 17.612 0 0 0 0 3.2H1.811A6.368 6.368 0 0 1 1.6 8zM8 1.6c.348 0 1.188 1.116 1.66 3.2H6.34C6.811 2.716 7.651 1.6 8 1.6zm-2.413.476c-.375.755-.68 1.68-.885 2.724H2.466a6.432 6.432 0 0 1 3.12-2.724zM2.466 11.2h2.236c.205 1.045.51 1.969.885 2.724A6.432 6.432 0 0 1 2.466 11.2zm7.947 2.724c.376-.755.68-1.68.885-2.724h2.236a6.432 6.432 0 0 1-3.12 2.724z" fill="#000" fill-rule="nonzero"/></svg>