<svg width="534" height="153" viewBox="0 0 534 153" xmlns="http://www.w3.org/2000/svg"><title>Group 2</title><g fill="none" fill-rule="evenodd"><path fill="#E4E9ED" d="M0 151.21h533.007V147H0z"/><path d="M366.736 142.399H168.618V16.634c0-8.902 7.198-16.118 16.078-16.118h165.962c8.88 0 16.078 7.216 16.078 16.118v125.765z" fill="#697287"/><path d="M357.327 141.025H177.402V18.513c0-5.349 4.324-9.686 9.66-9.686h160.603c5.336 0 9.662 4.337 9.662 9.686v122.512z" fill="#FFF"/><path d="M282.932 88.435H213.84c-3.13 0-5.665-2.542-5.665-5.68V42.662c0-3.137 2.536-5.68 5.665-5.68h69.092c3.128 0 5.666 2.543 5.666 5.68v40.095c0 3.137-2.538 5.68-5.666 5.68" fill="#CCD1D9"/><path fill="#F9F9F9" d="M217.947 66.887h60.879V54.295h-60.88z"/><path d="M322.85 112.204h-69.093c-3.13 0-5.665-2.543-5.665-5.68V66.43c0-3.138 2.536-5.68 5.665-5.68h69.092c3.128 0 5.666 2.542 5.666 5.68v40.094c0 3.137-2.538 5.68-5.666 5.68" fill="#0548B8"/><path fill="#CCD3D9" d="M257.018 94.214h23.08v-2.43h-23.08z"/><path fill="#F9F9F9" d="M217.946 48.425h12.463v-2.43h-12.463zM234.085 48.425h12.463v-2.43h-12.463zM250.223 48.425h12.464v-2.43h-12.464zM266.363 48.425h12.463v-2.43h-12.463z"/><path fill="#CCD3D9" d="M257.02 101.158h10.518v-2.431H257.02z"/><path d="M308.24 96.47c0 5.52-4.463 9.994-9.968 9.994-5.506 0-9.969-4.474-9.969-9.993 0-5.52 4.463-9.994 9.97-9.994 5.504 0 9.967 4.474 9.967 9.994" fill="#FFF"/><path d="M320.634 96.47c0 5.52-4.464 9.994-9.969 9.994-5.505 0-9.969-4.474-9.969-9.993 0-5.52 4.464-9.994 9.97-9.994 5.504 0 9.968 4.474 9.968 9.994" fill="#FCA356"/><path fill="#002D78" d="M248.092 80.333h80.422v-8.974h-80.422z"/><path d="M286.001 134.2v2.42a3.787 3.787 0 0 1-3.782 3.792h-29.084a3.787 3.787 0 0 1-3.782-3.792v-2.42h-95.498v9.755c0 3.669 2.965 6.642 6.625 6.642h214.394c3.66 0 6.626-2.973 6.626-6.642V134.2H286z" fill="#A2ADBD"/><path d="M160.48 150.597h214.394c3.66 0 6.626-2.974 6.626-6.642H153.855c0 3.668 2.965 6.642 6.625 6.642" fill="#697287"/><path fill="#FFF" d="M146.44 123.88h1.545V93.438h-1.546z"/><g><path d="M397.476 149.425h59.933c2.516 0 4.555-2.001 4.555-4.47V77.93L443.67 58.6h-46.194c-2.516 0-4.556 2.001-4.556 4.47v81.886c0 2.469 2.04 4.47 4.556 4.47" fill="#E4E9ED"/><path fill="#E4E7ED" d="M443.67 77.93V58.6l18.295 19.332z"/><path d="M447.684 95.19h-40.483c-1.185 0-2.145-.943-2.145-2.105 0-1.163.96-2.105 2.145-2.105h40.483c1.185 0 2.145.942 2.145 2.105 0 1.162-.96 2.104-2.145 2.104M447.684 106.09h-40.483c-1.185 0-2.145-.942-2.145-2.105s.96-2.105 2.145-2.105h40.483c1.185 0 2.145.942 2.145 2.105s-.96 2.105-2.145 2.105M447.684 116.99h-40.483c-1.185 0-2.145-.942-2.145-2.105s.96-2.104 2.145-2.104h40.483c1.185 0 2.145.941 2.145 2.104 0 1.163-.96 2.105-2.145 2.105M437.052 127.89H407.2c-1.184 0-2.145-.942-2.145-2.104 0-1.163.96-2.105 2.145-2.105h29.85c1.186 0 2.146.942 2.146 2.105 0 1.162-.96 2.104-2.145 2.104" fill="#FFF"/><path d="M412.06 83.247h.275c3.869 0 7.005-3.077 7.005-6.873 0-3.794-3.136-6.871-7.005-6.871h-.275c-3.868 0-7.004 3.077-7.004 6.871 0 3.796 3.136 6.873 7.004 6.873" fill="#CCD1D9"/></g><g><path d="M116.41 118.31l-12.725 4.112c-.836.27-1.624-.52-1.355-1.358l4.101-12.757a53.115 53.115 0 0 1 12.958-21.254 52.936 52.936 0 0 1 21.2-12.99l12.724-4.111c.836-.27 1.624.52 1.356 1.358l-4.102 12.757a53.108 53.108 0 0 1-12.957 21.253 52.936 52.936 0 0 1-21.2 12.99" fill="#E4E9ED"/><path d="M110.31 107.799l-6.098 11.928c-.4.782-1.516.782-1.916 0L96.198 107.8a53.192 53.192 0 0 1-5.829-24.214 53.19 53.19 0 0 1 5.83-24.213l6.097-11.929a1.075 1.075 0 0 1 1.916 0l6.098 11.929a53.203 53.203 0 0 1 0 48.427" fill="#D3D9DE"/><path d="M100.076 110.827l4.102 12.757c.27.838-.52 1.628-1.354 1.359l-12.726-4.112a52.936 52.936 0 0 1-21.2-12.99A53.115 53.115 0 0 1 55.94 86.587L51.84 73.831c-.269-.838.52-1.628 1.355-1.359l12.725 4.112a52.929 52.929 0 0 1 21.2 12.99 53.115 53.115 0 0 1 12.957 21.253" fill="#CCD1D9"/><path d="M113.376 152.163h-22.2c-11.833 0-21.425-9.616-21.425-21.48v-15.065h65.05v15.066c0 11.863-9.592 21.48-21.425 21.48" fill="#E4E9ED"/><path d="M102.276 115.618v36.545h11.1c11.833 0 21.425-9.617 21.425-21.48v-15.065h-32.525z" fill="#CCD1D9"/></g></g></svg>