<svg width="443" height="224" viewBox="0 0 443 224" xmlns="http://www.w3.org/2000/svg"><title>Group 6</title><g fill="none" fill-rule="evenodd"><path fill="#E4E9ED" d="M22.129 223.203h420.448v-4.193H22.13zM324.814 55.427c-8.124 0-15.54 2.789-21.215 7.383-5.838-5.381-13.88-8.709-22.76-8.709-5.593 0-10.853 1.32-15.44 3.642-7.584-3.358-16.072-5.243-25.036-5.243-24.347 0-45.191 13.876-53.876 33.565a43.781 43.781 0 0 0-7.632-.675 43.54 43.54 0 0 0-9.933 1.142c-3.37-17.584-19.918-30.94-39.839-30.94-22.354 0-40.476 16.814-40.476 37.555s18.122 37.555 40.476 37.555a43.54 43.54 0 0 0 9.934-1.143c3.37 17.584 19.917 30.941 39.838 30.941 10.679 0 20.385-3.844 27.618-10.112 9.546 6.357 21.242 10.112 33.89 10.112 31.184 0 56.639-22.758 58.128-51.35 1.251-.76 2.44-1.599 3.564-2.507 5.838 5.382 13.879 8.71 22.759 8.71 17.835 0 32.293-13.416 32.293-29.963 0-16.548-14.458-29.963-32.293-29.963M27.673 66.983H2.446a1.75 1.75 0 0 1-1.752-1.747 1.75 1.75 0 0 1 1.752-1.747h25.227a1.75 1.75 0 0 1 1.752 1.747 1.75 1.75 0 0 1-1.752 1.747M45.761 82.907H20.534a1.75 1.75 0 0 1-1.752-1.748 1.75 1.75 0 0 1 1.752-1.746h25.227a1.75 1.75 0 0 1 1.752 1.746 1.75 1.75 0 0 1-1.752 1.748M396.248 81.16h-25.227a1.75 1.75 0 0 1-1.752-1.748 1.75 1.75 0 0 1 1.752-1.747h25.227a1.75 1.75 0 0 1 1.753 1.747 1.75 1.75 0 0 1-1.753 1.748M425.705 95.734H400.48a1.75 1.75 0 0 1-1.753-1.747 1.75 1.75 0 0 1 1.753-1.747h25.226a1.75 1.75 0 0 1 1.753 1.747 1.75 1.75 0 0 1-1.753 1.747"/><path d="M130.899 74.493c0 25.768 20.943 46.658 46.779 46.658 25.834 0 46.778-20.89 46.778-46.658s-20.944-46.657-46.778-46.657c-25.836 0-46.78 20.889-46.78 46.657" fill="#FFE032"/><g fill="#FFB902"><path d="M135.274 27.466a1.686 1.686 0 0 0 2.436-1.626l-.952-24.273a1.685 1.685 0 1 0-3.362.238l.951 24.273c.044.615.413 1.13.927 1.388M121.765 34.347a1.686 1.686 0 0 0 .691-2.846l-17.34-17.384a1.685 1.685 0 1 0-2.312 2.452l17.34 17.384a1.682 1.682 0 0 0 1.621.394M115.484 47.1a1.685 1.685 0 0 0-1.684-2.397L91.21 46.68a1.686 1.686 0 0 0 .319 3.355l22.59-1.977a1.684 1.684 0 0 0 1.365-.958"/></g><path d="M398.184 177.246c0-3.854-1.912-7.32-4.956-9.721.493-1.452.767-3.034.767-4.69 0-7.032-4.881-12.732-10.903-12.732s-10.904 5.7-10.904 12.731c0 1.657.275 3.239.768 4.69-3.044 2.402-4.956 5.868-4.956 9.722 0 3.853 1.912 7.32 4.956 9.72a14.586 14.586 0 0 0-.768 4.69c0 7.032 4.882 12.732 10.904 12.732s10.903-5.7 10.903-12.731c0-1.657-.274-3.239-.767-4.69 3.044-2.402 4.956-5.868 4.956-9.721" fill="#E4E9ED"/><path d="M372.189 162.834c0 1.658.274 3.238.767 4.69-3.044 2.401-4.956 5.867-4.956 9.721 0 3.855 1.912 7.321 4.956 9.72a14.592 14.592 0 0 0-.767 4.692c0 7.032 4.881 12.732 10.903 12.732v-54.287c-6.022 0-10.903 5.7-10.903 12.732" fill="#CCD1D9"/><path fill="#C0C7D1" d="M389.265 190.685l-5.774 5.524v-8.717l9.006-8.752-.556-.57-8.45 8.212v-14.64l5.182-5.035-.557-.57-4.625 4.495v-20.53h-.798v32.92l-8.559-8.318-.556.57 9.115 8.86v12.19l-5.77-5.636-.558.568 6.328 6.181v21.54h.798v-21.666l6.326-6.052z"/><g><path d="M379.176 157.64c0-5.67-2.812-10.766-7.288-14.296a21.416 21.416 0 0 0 1.129-6.898c0-10.34-7.18-18.723-16.034-18.723-8.856 0-16.035 8.383-16.035 18.723 0 2.436.404 4.763 1.129 6.898-4.477 3.53-7.289 8.626-7.289 14.295 0 5.668 2.812 10.765 7.289 14.295a21.444 21.444 0 0 0-1.13 6.898c0 10.34 7.18 18.723 16.036 18.723 8.854 0 16.034-8.383 16.034-18.723 0-2.436-.403-4.763-1.13-6.898 4.477-3.53 7.29-8.627 7.29-14.295" fill="#E4E9ED"/><path d="M340.948 136.446c0 2.437.403 4.763 1.128 6.898-4.476 3.53-7.287 8.627-7.287 14.295 0 5.669 2.811 10.765 7.287 14.295a21.444 21.444 0 0 0-1.128 6.898c0 10.34 7.178 18.723 16.034 18.723v-79.832c-8.856 0-16.034 8.383-16.034 18.723" fill="#CCD1D9"/><path fill="#C0C7D1" d="M366.06 177.402l-8.49 8.123V172.71l13.243-12.873-.819-.837-12.425 12.075v-21.527l7.62-7.406-.818-.838-6.802 6.61v-30.19h-1.173v48.41l-12.586-12.231-.819.838 13.405 13.028v17.927l-8.487-8.289-.82.837 9.307 9.09v31.677h1.173v-31.863l9.303-8.9z"/></g><g><path d="M119.092 186.69l5.32 4.7-8.056-25.773 5.168 3.639-7.448-23.348s3.344 1.971 5.168 4.32c-3.682-10.445-8.953-25.912-10.59-30.729a.533.533 0 0 0-1.012 0c-1.638 4.817-6.909 20.284-10.59 30.73 1.824-2.35 5.167-4.32 5.167-4.32l-7.448 23.347 5.168-3.64-8.055 25.774 5.32-4.7-7.144 24.106h36.176l-7.144-24.106z" fill="#D3D9DE"/><path fill="#C0C7D1" d="M106.223 219.01h3.85v-8.214h-3.85z"/></g><g><path d="M309.619 115.91H173.032V90.218c0-4.058 3.306-7.348 7.384-7.348h121.819c4.078 0 7.384 3.29 7.384 7.348v25.694z" fill="#0548B8"/><path d="M204.415 97.565c0 3.045-2.479 5.511-5.538 5.511-3.06 0-5.538-2.466-5.538-5.51 0-3.045 2.479-5.511 5.538-5.511 3.06 0 5.538 2.466 5.538 5.51" fill="#000" opacity=".4"/><path d="M198.877 101.086a2.76 2.76 0 0 1-2.767-2.754V79.118a2.762 2.762 0 0 1 2.767-2.757 2.762 2.762 0 0 1 2.767 2.757v19.214a2.76 2.76 0 0 1-2.767 2.754" fill="#F6F6F6"/><path d="M289.333 97.565c0 3.045-2.478 5.511-5.538 5.511-3.059 0-5.537-2.466-5.537-5.51 0-3.045 2.478-5.511 5.537-5.511 3.06 0 5.538 2.466 5.538 5.51" fill="#000" opacity=".4"/><path d="M302.234 219.093H180.415c-4.078 0-7.384-3.29-7.384-7.348V114.41h136.587v97.335c0 4.058-3.306 7.348-7.384 7.348" fill="#0548B8"/><path d="M300.29 207.807H182.361c-1.86 0-3.368-1.572-3.368-3.512V115.91h124.663v88.384c0 1.94-1.507 3.512-3.368 3.512" fill="#FFF"/><path d="M230.483 185.5h-10.397v-33.1l-10.213 2.984v-7.875l19.657-6.798h.953V185.5zm44.605-18.303c0 6.05-1.359 10.715-4.076 13.996-2.717 3.282-6.547 4.922-11.49 4.922-4.983 0-8.838-1.65-11.566-4.952-2.727-3.302-4.091-7.957-4.091-13.966v-8.183c0-6.05 1.358-10.715 4.076-13.996 2.717-3.282 6.557-4.922 11.52-4.922 4.963 0 8.808 1.65 11.536 4.952 2.727 3.302 4.09 7.968 4.09 13.997v8.152zm-10.367-9.506c0-3.22-.42-5.624-1.261-7.213-.84-1.59-2.174-2.384-4-2.384-1.783 0-3.08.738-3.89 2.215-.81 1.476-1.246 3.711-1.308 6.706v11.443c0 3.343.42 5.788 1.261 7.337.841 1.548 2.174 2.322 4 2.322 1.763 0 3.065-.753 3.906-2.26.841-1.508 1.272-3.872 1.292-7.091V157.69z" fill="#0548B8"/><path d="M283.795 101.086a2.76 2.76 0 0 1-2.767-2.754V79.118a2.762 2.762 0 0 1 2.767-2.757 2.762 2.762 0 0 1 2.768 2.757v19.214a2.76 2.76 0 0 1-2.768 2.754" fill="#F6F6F6"/></g></g></svg>