<svg width="223" height="19" viewBox="0 0 223 19" xmlns="http://www.w3.org/2000/svg"><title>24bWideUk</title><g fill-rule="nonzero" fill="none"><path d="M67.736 11.42a.283.283 0 0 0-.317.255s-.405.95-1.134 1.312c-.326.167-.465.255-1.204.233h-3.73c-2.019-.145-2.226-2.254-2.226-2.254 0-.258-.028-.598-.028-.745V7.826c.057-2.157 1.73-2.653 1.73-2.653a3.14 3.14 0 0 1 .79-.077h3.73c1.7.057 2.14 1.902 2.14 1.902a.36.36 0 0 0 .315.233h6.774a.264.264 0 0 0 .26-.264V6.24c-.099-5.014-4.66-6.235-5.603-6.204-.255 0-.612-.02-.754-.02H57.944c-3.209 0-5.029 2.38-5.67 4.002a5.326 5.326 0 0 0-.376 1.582c0 .283-.037.762-.037.907v5.558c.283 5.309 4.895 6.196 5.59 6.236.232 0 .62.022.765.022H68.75c4.819-.252 6.054-4.472 6.077-5.819 0-.39.017-.541.017-.688v-.12a.264.264 0 0 0-.26-.266l-6.849-.011zM26.615.496c.074-.128.014-.227-.13-.227H.264A.26.26 0 0 0 0 .53v5.045c0 .146.118.264.264.264h6.43c.145.001.262.119.262.263v11.684c0 .145.118.263.263.263h10.122a.264.264 0 0 0 .263-.263V6.102a.26.26 0 0 1 .261-.263h5.309a.513.513 0 0 0 .397-.227L26.615.496zM30.844.27a.663.663 0 0 0-.437.192S25.76 5.085 25.77 11.516c0 3.968 1.627 6.324 1.627 6.324.108.122.26.196.423.207h6.632c.145 0 .187-.091.094-.202a11.207 11.207 0 0 1-2.1-6.43 8.546 8.546 0 0 1 1.983-5.412.59.59 0 0 1 .417-.21h4.175a.26.26 0 0 1 .26.264v11.729c0 .145.119.263.264.263h9.43a.264.264 0 0 0 .264-.263V.536a.264.264 0 0 0-.263-.261L30.844.269z" fill="#12235F"/><path d="M32.448 11.414c0 .699.07 1.396.21 2.08h13.537l1.78-2.8H32.479c-.02.233-.03.474-.03.72M32.924 8.63a8.523 8.523 0 0 0-.41 1.701h15.685l1.088-1.7H32.924zM77.552 14.555l6.737-5.142c1.7-1.287 2.313-2.16 2.313-3.24 0-1.133-.796-1.825-2.007-1.825-1.21 0-2.16.694-3.574 2.313l-3.367-2.803C79.58 1.363 81.486 0 84.98 0c3.934 0 6.632 2.338 6.632 5.785 0 2.88-1.465 4.396-4.166 6.298l-3.087 2.16h7.432v4.062H77.546l.006-3.75zM102.228 14.81h-8.716l-.822-3.523L102.024.179h5.04v10.9h2.287v3.728h-2.287v3.498h-4.836V14.81zm0-3.702V5.941l-4.294 5.167h4.294z" fill="#B1132F"/><path fill="#12235F" d="M115.774.017v18.027h-1V.017zM123.45.181h11.691v.522h-11.17v7.863h6.927a8.05 8.05 0 0 1 2.551.365c.662.21 1.27.56 1.783 1.03.462.433.818.967 1.04 1.56.23.63.345 1.297.337 1.968a5.714 5.714 0 0 1-.337 1.953 4.535 4.535 0 0 1-1.04 1.652 5.119 5.119 0 0 1-1.772 1.134 6.67 6.67 0 0 1-2.5.43h-7.525L123.45.182zm7.525 17.968a6.153 6.153 0 0 0 2.355-.403 4.495 4.495 0 0 0 1.587-1.054c.403-.425.709-.932.899-1.485.189-.553.285-1.134.283-1.718a5.819 5.819 0 0 0-.235-1.653 3.339 3.339 0 0 0-.833-1.417 4.223 4.223 0 0 0-1.602-.978 7.522 7.522 0 0 0-2.55-.365h-6.928v9.07l7.024.003zM142.743 18.676V.19h.521v18.486zM150.192 2.341c.22-.322.487-.609.793-.85a5.61 5.61 0 0 1 1.171-.729 7.874 7.874 0 0 1 1.446-.507 6.635 6.635 0 0 1 1.615-.195c1.58 0 2.817.377 3.71 1.133.894.756 1.341 1.795 1.341 3.118a4.107 4.107 0 0 1-.82 2.642c-.545.686-1.435 1.176-2.67 1.47a5.669 5.669 0 0 1 1.863.69c.51.305.96.701 1.327 1.17.36.469.633.997.807 1.562a6.11 6.11 0 0 1 .284 1.837 5.142 5.142 0 0 1-.417 2.108 4.646 4.646 0 0 1-1.185 1.616 5.354 5.354 0 0 1-1.836 1.04 7.908 7.908 0 0 1-4.283.13 8.095 8.095 0 0 1-1.678-.637 5.884 5.884 0 0 1-1.38-.978 5.584 5.584 0 0 1-.99-1.25l.443-.366c.22.45.525.852.898 1.185.402.364.849.674 1.33.924a7.37 7.37 0 0 0 1.6.612 7.055 7.055 0 0 0 1.772.222c1.58 0 2.843-.409 3.79-1.225.947-.816 1.419-1.962 1.417-3.438 0-1.546-.534-2.76-1.601-3.645-1.068-.884-2.574-1.327-4.518-1.327h-.91v-.521h.91c1.753 0 3.082-.335 3.985-1.003.903-.67 1.355-1.628 1.355-2.877 0-1.198-.4-2.11-1.2-2.736-.799-.625-1.91-.938-3.333-.938a6.5 6.5 0 0 0-1.496.17 6.049 6.049 0 0 0-1.315.468c-.38.187-.738.414-1.069.677-.28.218-.526.477-.728.768l-.428-.32zM181.41.181v18.495h-.522V9.484h-12.837v9.192h-.521V.19h.521v8.787h12.837V.19zM201.304 18.146v.53H189.17V.19h11.905V.71h-11.38v8.254h9.974v.522h-9.974v8.67zM206.511 9.294a9.773 9.773 0 0 1 .587-3.308 9.518 9.518 0 0 1 1.7-2.956 8.549 8.549 0 0 1 2.736-2.134 8.129 8.129 0 0 1 3.71-.82 7.452 7.452 0 0 1 4.192 1.134 7.012 7.012 0 0 1 2.551 2.903l-.496.156a7.109 7.109 0 0 0-1.264-1.718 6.3 6.3 0 0 0-1.562-1.134 7.245 7.245 0 0 0-1.743-.626 8.387 8.387 0 0 0-1.783-.196 7.48 7.48 0 0 0-3.438.768 7.999 7.999 0 0 0-2.551 2.018 8.764 8.764 0 0 0-1.576 2.835 9.801 9.801 0 0 0-.533 3.163 9.118 9.118 0 0 0 .638 3.384 9.422 9.422 0 0 0 1.743 2.852 8.435 8.435 0 0 0 2.59 1.967 7.163 7.163 0 0 0 3.204.728 7.914 7.914 0 0 0 1.873-.235 8.197 8.197 0 0 0 1.862-.703 7.111 7.111 0 0 0 2.982-2.968l.496.13a6.182 6.182 0 0 1-1.275 1.849 8.007 8.007 0 0 1-1.797 1.355c-.66.364-1.364.639-2.095.819a8.957 8.957 0 0 1-2.148.283 7.338 7.338 0 0 1-3.464-.833 8.98 8.98 0 0 1-2.721-2.174 10.232 10.232 0 0 1-1.772-3.047 9.844 9.844 0 0 1-.646-3.492z"/></g></svg>