<svg xmlns="http://www.w3.org/2000/svg" width="201" height="45" viewBox="0 0 201 45"><g fill="none"><path fill="#2D4A7B" d="M6.078 40.006l3.052-.57c.276-.057.522-.21.693-.432a1.26 1.26 0 0 0 .28-.814V13.572H3.505a.764.764 0 0 0-.602.212c-.131.155-.23.336-.289.53l-1.492 4.65H0V12h24v6.965h-1.089l-1.492-4.652a1.622 1.622 0 0 0-.28-.529.706.706 0 0 0-.57-.212h-6.73v24.634c-.007.297.095.587.289.815.177.216.425.366.7.423l3.052.57V41H6.078v-.994zM21 39.948l1.799-.539c.286-.09.542-.257.741-.48.211-.227.378-.491.492-.779l8.328-22.229 1.549-4.333L35.708 11l10.26 27.15c.114.288.28.552.492.779.199.223.455.39.741.48l1.799.539v1.002H38.806v-1.002l4.164-.704-3.506-9.238H29.82l-3.248 9.163 2.573.829V41H21v-1.052zm18.322-11.6l-3.43-9.038-1.05-2.892-4.373 11.93h8.853zm13.189 6.19h2.604c.056.825.156 1.645.298 2.46.18.384.488.695.871.878a15.84 15.84 0 0 0 1.701.678c.529.176 1.067.322 1.613.435.445.095.899.146 1.354.153a6.86 6.86 0 0 0 2.322-.379 4.902 4.902 0 0 0 1.782-1.096c.506-.5.895-1.105 1.137-1.774a6.83 6.83 0 0 0 .395-2.42 4.742 4.742 0 0 0-1.016-3.136 7.256 7.256 0 0 0-2.741-1.968 12.761 12.761 0 0 0-1.524-.548l-1.508-.427-1.523-.428a14.083 14.083 0 0 1-1.508-.532 7.901 7.901 0 0 1-3.515-2.685 7.137 7.137 0 0 1-1.25-4.25 8.363 8.363 0 0 1 2.524-6.031 8.594 8.594 0 0 1 2.805-1.814A9.262 9.262 0 0 1 60.84 11c.685 0 1.368.038 2.048.113.677.076 1.339.178 1.984.307.644.129 1.273.28 1.886.451-.58.283-2.717 1.847-2.717 1.847s-.879-.33-1.33-.46a10.592 10.592 0 0 0-1.33-.282 7.795 7.795 0 0 0-1.113-.097 6.231 6.231 0 0 0-2.137.339 4.636 4.636 0 0 0-1.612.951 4.12 4.12 0 0 0-1 1.46 4.774 4.774 0 0 0-.354 1.855 8.871 8.871 0 0 0 .16 1.71c.106.55.305 1.08.59 1.563.306.515.702.97 1.168 1.347a6.337 6.337 0 0 0 1.879 1.032c.489.178.973.336 1.451.476l1.451.42c.49.139.987.292 1.492.459.505.166 1.043.368 1.612.605.635.271 1.25.59 1.838.951.604.37 1.148.83 1.613 1.363.492.573.88 1.228 1.145 1.935a7.38 7.38 0 0 1 .435 2.67 9.605 9.605 0 0 1-.58 3.225 7.862 7.862 0 0 1-1.822 2.886 9.336 9.336 0 0 1-3.225 2.065 12.35 12.35 0 0 1-4.668.806 11.898 11.898 0 0 1-1.879-.153c-.653-.105-1.395-.178-2.088-.347-.693-.17-2.056-.645-2.056-.645a4.998 4.998 0 0 1-1.169-.685v-4.629zM70 13.778l4.584-4.103a3.168 3.168 0 0 1 3.691-.157C79.822 10.705 83 13.962 83 13.962L80.038 17s-3.31-3.65-4.361-4.365C74.626 11.919 70 13.778 70 13.778z"/><path fill="#908C74" d="M69.837 13l4.366-4.448a3.276 3.276 0 0 0 .375-3.75A46.342 46.342 0 0 0 70.213 0L67 2.696a53.382 53.382 0 0 1 4.365 4.592C72.09 8.375 69.837 13 69.837 13z"/><path fill="#2D4A7B" d="M95 6h2v39h-2z"/><path fill="#908C74" d="M111.185 18.89c-.056-1.3-.118-2.596-.185-3.89l2.966.106a89.198 89.198 0 0 0 5.916 0l2.95-.106a4.237 4.237 0 0 0 0 1.827l-1.941-.123-1.857-.122c-.65-.038-1.362-.073-2.135-.106-.773-.033-1.7-.049-2.781-.049 0 .647-.028 1.264-.084 1.851a16.228 16.228 0 0 0-.05 2.007v4.012h2.621l2.118-.073 1.773-.09 1.538-.106a4.319 4.319 0 0 0 0 1.86 47.168 47.168 0 0 0-4.294-.228l-2.152-.001h-1.605V32.934c0 .744.017 1.313.05 1.704h2.32c.84 0 1.664-.016 2.47-.049a82.793 82.793 0 0 0 2.286-.122c.63-.04 1.255-.116 1.874-.229a1.992 1.992 0 0 0-.084.473v.473c-.01.276.024.55.101.816a77.339 77.339 0 0 0-2.966-.057h-6.017c-.997 0-2.003.019-3.017.057.067-1.294.129-2.585.185-3.874.056-1.288.084-2.601.084-3.939V22.83c0-1.326-.028-2.64-.084-3.939zm25.35 4.908a3.101 3.101 0 0 0-2.579-1.195 3.95 3.95 0 0 0-3.273 1.327 5.906 5.906 0 0 0-1.048 3.742v2.63c0 .928.017 1.902.05 2.92.032 1.017.103 1.94.212 2.77a18.64 18.64 0 0 0-1.448-.058c-.47 0-.953.019-1.449.058a28.1 28.1 0 0 0 .213-2.77c.033-1.024.049-1.997.049-2.92v-3.22c0-.929-.016-1.902-.05-2.92a32.053 32.053 0 0 0-.212-2.861c.478.091.962.144 1.449.157.189-.002.377-.019.564-.05l.729-.107a31.408 31.408 0 0 0-.099 2.488h.05a6.584 6.584 0 0 1 2.16-2.057 5.91 5.91 0 0 1 3.004-.73c.616.002 1.23.086 1.825.249.596.159 1.153.441 1.636.83a4.401 4.401 0 0 1 1.212 1.659c.339.838.498 1.74.466 2.646 0 .885-.022 1.797-.065 2.737-.044.94-.066 1.936-.066 2.986V35.087c0 .316.016.62.05.913a15.202 15.202 0 0 0-1.36-.058c-.474 0-.916.02-1.325.058.044-1.073.093-2.179.147-3.318.055-1.14.082-2.303.082-3.492v-1.883a5.607 5.607 0 0 0-.925-3.51zm6.48 5.178a8.522 8.522 0 0 1 1.879-5.852c1.253-1.415 3.075-2.122 5.467-2.122a7.8 7.8 0 0 1 2.937.504c.772.3 1.475.754 2.066 1.333a5.21 5.21 0 0 1 1.237 1.96c.27.77.405 1.58.399 2.397v.593a3.7 3.7 0 0 1-.049.594l-3.433-.065h-5.533l-2.099.065a2.372 2.372 0 0 0 0 .455v.35c-.007.752.117 1.5.366 2.21.23.66.596 1.264 1.074 1.773.49.507 1.08.909 1.733 1.178a5.984 5.984 0 0 0 2.376.44c.445-.004.887-.061 1.318-.171a7.611 7.611 0 0 0 2.522-1.138c.354-.236.68-.508.976-.813l.163.09-.195 1.487a9 9 0 0 1-2.392 1.243 8.671 8.671 0 0 1-2.97.512 9.51 9.51 0 0 1-3.156-.504 7.08 7.08 0 0 1-2.441-1.455 6.503 6.503 0 0 1-1.627-2.26 7.05 7.05 0 0 1-.619-2.804zm7.411-6.999a3.688 3.688 0 0 0-2.001.512 4.57 4.57 0 0 0-1.35 1.285 5.964 5.964 0 0 0-.814 1.699 8.537 8.537 0 0 0-.334 1.74l2.067.056h4.246l2.116-.057a10.948 10.948 0 0 0-.147-1.723 5.183 5.183 0 0 0-.577-1.699 3.7 3.7 0 0 0-1.205-1.3 3.574 3.574 0 0 0-2.033-.52l.032.007zm17.475 1.605a3.13 3.13 0 0 0-.966-.157 2.895 2.895 0 0 0-1.415.34c-.412.224-.77.536-1.049.913-.299.41-.522.872-.657 1.361a6.018 6.018 0 0 0-.233 1.66v6.524c.002.595.04 1.188.116 1.777a14.938 14.938 0 0 0-1.315-.058c-.439 0-.9.02-1.382.058.067-.703.105-1.657.117-2.864.01-1.206.01-2.686 0-4.44v-.963-2.79c0-1.056-.04-2.263-.117-3.618l.69.107c.23.033.46.05.692.05.209-.002.418-.018.624-.05l.691-.107c-.089.741-.139 1.33-.15 1.768-.01.437-.01.849 0 1.236h.067c1.293-2.213 2.739-3.32 4.337-3.32.17-.012.339-.012.508 0 .185.034.367.087.541.158-.132.362-.2.744-.2 1.129v1.378l-.233.157a1.484 1.484 0 0 0-.666-.249zm2.618 2.178c-.02-.732.142-1.459.47-2.117a4.162 4.162 0 0 1 1.308-1.474 6.064 6.064 0 0 1 1.889-.879 8.907 8.907 0 0 1 2.312-.29h1.148l1.395.086 1.292.087h.908a15.5 15.5 0 0 0 2.544-.15 2.65 2.65 0 0 0-.048.307v.611c.01.103.025.205.048.306l-1.778-.133c-.58-.047-1.15-.081-1.714-.102l-.064.055c.68.353 1.235.9 1.594 1.568.388.652.594 1.393.598 2.149a4.121 4.121 0 0 1-1.594 3.435 6.727 6.727 0 0 1-4.25 1.247h-1.721c-.386.004-.758.14-1.053.384a1.17 1.17 0 0 0-.486.965c-.039.409.104.815.39 1.113.43.285.943.42 1.46.384l1.73.048 1.73.047a9.83 9.83 0 0 1 2.47.321c.602.155 1.167.422 1.667.784.402.3.725.69.94 1.137.201.442.302.92.296 1.404a5.512 5.512 0 0 1-.423 2.078 5.37 5.37 0 0 1-1.323 1.898 7.084 7.084 0 0 1-2.312 1.404 9.297 9.297 0 0 1-3.396.557 8.886 8.886 0 0 1-4.784-1.13 3.486 3.486 0 0 1-1.761-3.082 3.287 3.287 0 0 1 .295-1.403c.2-.42.47-.804.797-1.137a3.703 3.703 0 0 1 1.068-.785c.39-.192.803-.34 1.228-.439v-.055a2.783 2.783 0 0 1-1.475-.878 2.235 2.235 0 0 1-.502-1.459 1.996 1.996 0 0 1 .207-.91c.133-.267.308-.513.518-.729a2.83 2.83 0 0 1 1.507-.784v-.055a5.256 5.256 0 0 1-2.264-1.655 4.273 4.273 0 0 1-.861-2.729zm11.16 12.548a2.68 2.68 0 0 0-1.1-2.455 7.083 7.083 0 0 0-3.643-.698 7.6 7.6 0 0 0-3.643.714 2.7 2.7 0 0 0-1.291 2.588 3.673 3.673 0 0 0 .358 1.694c.227.45.56.84.973 1.137.44.306.935.524 1.459.643.598.14 1.21.208 1.825.204a7.45 7.45 0 0 0 1.858-.235 5.304 5.304 0 0 0 1.594-.706 3.776 3.776 0 0 0 1.148-1.184c.311-.515.471-1.104.463-1.702zm-1.697-12.657a3.88 3.88 0 0 0-.941-2.808 3.743 3.743 0 0 0-5.126.102 4.15 4.15 0 0 0-.94 2.847 4.488 4.488 0 0 0 .86 2.91 3.216 3.216 0 0 0 2.687 1.066 3.33 3.33 0 0 0 1.594-.337c.422-.22.788-.53 1.069-.91.291-.397.505-.844.63-1.318a5.89 5.89 0 0 0 .167-1.584v.032zm12.612 9.528l-.935-2.085c-.384-.852-.795-1.749-1.235-2.692l-1.352-2.891-1.302-2.756-1.069-2.277L186 21l.793.104c.48.059.965.059 1.444 0l.793-.104a77.183 77.183 0 0 0 2.27 5.656c.835 1.864 1.712 3.789 2.63 5.775a72.614 72.614 0 0 0 2.646-5.591A92.494 92.494 0 0 0 198.83 21a4.032 4.032 0 0 0 2.17 0c-.156.277-.403.748-.743 1.414l-1.219 2.396c-.473.922-.987 1.944-1.544 3.068l-1.67 3.459-1.727 3.515a930.896 930.896 0 0 0-1.578 3.307 64.915 64.915 0 0 0-1.269 2.828 65.77 65.77 0 0 0-.834 2.013 4.276 4.276 0 0 0-2.237 0 58.623 58.623 0 0 0 4.415-7.82z"/></g></svg>