<svg width="52" height="23" viewBox="0 0 52 23" xmlns="http://www.w3.org/2000/svg"><title>Olvy</title><path d="M16.422 9.21c-.582 4.737-4.261 8.57-9.267 8.314-4.89-.255-7.66-4.413-7.078-9.15C.682 3.657 4.43-.245 9.32.011c4.913.255 7.707 4.482 7.102 9.197zm-10.99-.558c-.326 2.624.303 6.178 2.049 6.27 1.816.094 3.26-3.228 3.585-5.991.35-2.718-.302-6.225-2.072-6.318-1.77-.093-3.213 3.298-3.562 6.039zM18.936.407c0-.116.117-.116.117-.116h4.656s.117 0 .094.116c0 0-1.258 10.312-1.444 11.915-.466 3.692 1.234 2.903.931 3.53-.349.743-1.909 1.649-3.213 1.649-1.886 0-3.073-1.347-2.817-3.53.023-.14 1.676-13.564 1.676-13.564zM35.002 4.75c1.793.116 3.073 1.51 2.119 5.504-.512 2.114-3.05 6.991-7.311 7.2h-.14c-1.956 0-4.633-.882-4.89-5.504-.116-1.928.676-6.573.676-6.573.023-.093.116-.116.116-.116h4.447s.093.023.07.14c0 0-1.024 4.598-1.001 7.269.023 1.928.582 2.113 1.024 2.113.699 0 1.56-.812 2.166-3.67.768-3.53-.512-4.226-.396-4.714.116-.441 1.49-1.765 3.12-1.65zM50.579 15.27c-.35 4.018-2.957 6.898-7.265 6.898-3.4 0-4.68-2.276-4.843-3.158-.233-1.138.024-1.348.256-1.301.56.093 1.025 1.858 3.633 1.858 1.862 0 3.073-1.254 3.33-2.648l.279-2.322c-1.211 1.997-2.864 2.694-4.098 2.694-1.723 0-3.004-1.51-2.725-3.832l.42-3.484c.465-3.693-1.397-2.903-1.118-3.53.35-.744 1.723-1.65 3.027-1.65 1.886 0 3.26 1.347 2.98 3.53l-.535 4.367c-.28 2.323 2.002 1.51 2.375-1.208.419-3.344.768-6.108.768-6.108 0-.116.093-.116.093-.116h4.494s.093 0 .093.116c0 0-.768 6.805-1.164 9.894z" opacity=".8" fill="#000" fill-rule="evenodd"/></svg>