<svg width="102" height="60" viewBox="0 0 102 60" xmlns="http://www.w3.org/2000/svg" xmlns:xlink="http://www.w3.org/1999/xlink"><title>Group 25</title><defs><linearGradient x1="104.212%" y1="50%" x2="19.272%" y2="50%" id="b"><stop stop-color="#D4BDB8" offset="0%"/><stop stop-color="#EBD4AE" offset="99.271%"/></linearGradient><rect id="a" width="92.435" height="50.333" rx=".923"/><radialGradient cx="59.009%" cy="47.167%" fx="59.009%" fy="47.167%" r="57.911%" gradientTransform="matrix(-.32624 .74834 -.85924 -.23476 1.188 .14)" id="e"><stop stop-color="#FFF" offset="0%"/><stop stop-color="#BAB4B5" offset="100%"/></radialGradient><radialGradient cx="59.022%" fx="59.022%" fy="50%" r="56.844%" gradientTransform="matrix(-.32624 .74834 -.85924 -.23476 1.212 .176)" id="f"><stop stop-color="#FFF" offset="0%"/><stop stop-color="#FFF" stop-opacity=".927" offset="59.673%"/><stop stop-color="#FFF" stop-opacity="0" offset="100%"/></radialGradient><path d="M10.413 4.074S13.74.933 16.603.35c2.009-.41 6.204-.544 9.479 1.212 1.634.877 5.024 3.224 6.238 6.28 1.214 3.055.465 6.372.579 7.034.114.662.815-.787 1.116.143.152.467.68 1.59.768 3.137.088 1.546-.633 5.586-.768 6.114-.135.528-1.116.63-1.116.63s-.183 3.406-.579 4.897c-.198.749-.613 2.043-1.478 3.177-.864 1.133-1.58 1.712-1.58 1.712s.887 1.2 1.427 2.066c.195.311.557 2.335 2.095 4.457 1.537 2.122 2.205 2.641 2.205 2.641L.363 43.728s-.21-1.037.882-2.341c1.092-1.305 3.313-2.693 4.306-3.256 2.055-1.165 3.287-1.233 3.688-1.68.567-.632.99-2.017 1.426-3.207.437-1.19.759-1.75.759-1.75s.32-1.828.295-2.88c-.027-1.05-.484-2.675-.484-2.675S7.98 22.707 7.23 21.463c-.75-1.244-.85-2.46-.838-3.561.012-1.102.365-1.659.365-1.659l-.054-.386s-1.049-3.366.054-6.606c1.102-3.239 3.655-5.177 3.655-5.177z" id="d"/><rect id="g" width="92.435" height="50.333" rx=".923"/><path d="M10.413 4.074S13.74.933 16.603.35c2.009-.41 6.204-.544 9.479 1.212 1.634.877 5.024 3.224 6.238 6.28 1.214 3.055.465 6.372.579 7.034.114.662.815-.787 1.116.143.152.467.68 1.59.768 3.137.088 1.546-.633 5.586-.768 6.114-.135.528-1.116.63-1.116.63s-.183 3.406-.579 4.897c-.198.749-.613 2.043-1.478 3.177-.864 1.133-1.58 1.712-1.58 1.712s.887 1.2 1.427 2.066c.195.311.557 2.335 2.095 4.457 1.537 2.122 2.205 2.641 2.205 2.641L.363 43.728s-.21-1.037.882-2.341c1.092-1.305 3.313-2.693 4.306-3.256 2.055-1.165 3.287-1.233 3.688-1.68.567-.632.99-2.017 1.426-3.207.437-1.19.759-1.75.759-1.75s.32-1.828.295-2.88c-.027-1.05-.484-2.675-.484-2.675S7.98 22.707 7.23 21.463c-.75-1.244-.85-2.46-.838-3.561.012-1.102.365-1.659.365-1.659l-.054-.386s-1.049-3.366.054-6.606c1.102-3.239 3.655-5.177 3.655-5.177z" id="i"/><rect id="j" width="92.435" height="50.333" rx=".923"/><path d="M10.413 4.074S13.74.933 16.603.35c2.009-.41 6.204-.544 9.479 1.212 1.634.877 5.024 3.224 6.238 6.28 1.214 3.055.465 6.372.579 7.034.114.662.815-.787 1.116.143.152.467.68 1.59.768 3.137.088 1.546-.633 5.586-.768 6.114-.135.528-1.116.63-1.116.63s-.183 3.406-.579 4.897c-.198.749-.613 2.043-1.478 3.177-.864 1.133-1.58 1.712-1.58 1.712s.887 1.2 1.427 2.066c.195.311.557 2.335 2.095 4.457 1.537 2.122 2.205 2.641 2.205 2.641L.363 43.728s-.21-1.037.882-2.341c1.092-1.305 3.313-2.693 4.306-3.256 2.055-1.165 3.287-1.233 3.688-1.68.567-.632.99-2.017 1.426-3.207.437-1.19.759-1.75.759-1.75s.32-1.828.295-2.88c-.027-1.05-.484-2.675-.484-2.675S7.98 22.707 7.23 21.463c-.75-1.244-.85-2.46-.838-3.561.012-1.102.365-1.659.365-1.659l-.054-.386s-1.049-3.366.054-6.606c1.102-3.239 3.655-5.177 3.655-5.177z" id="l"/></defs><g fill="none" fill-rule="evenodd"><g opacity=".2" transform="translate(8.66 8.71)"><mask id="c" fill="#fff"><use xlink:href="#a"/></mask><use fill="url(#b)" xlink:href="#a"/><path fill="#FFF" mask="url(#c)" d="M0-1.835h38.506v52.664H0z"/><g fill="#768468" mask="url(#c)"><path d="M66.78 44.58h23.23v1.092H66.78zM66.78 46.813h13.967v1.09H66.78z"/></g><g transform="translate(66.78 3.918)" mask="url(#c)"><rect fill="#929582" opacity=".703" width="10.101" height="10.41" rx="2.03"/><path d="M5.048 1.091c-.212.22-.34.506-.34.82.012.692.105 1.382.113 2.072.017.644-.195 1.249-.452 1.839-.086.163-.178.322-.27.482l-.273-.05c-.246-.045-.405-.263-.356-.487.043-.196.232-.334.443-.334l.1.01-.222-1.69c-.073-.752-.498-1.412-1.123-1.841a2.9 2.9 0 0 0-.34-.2v6h1.517c.113.56.452 1.051.928 1.387a.87.87 0 0 1 .276.275.866.866 0 0 1 .277-.275c.476-.336.815-.826.928-1.388h1.517v-6a2.9 2.9 0 0 0-.34.2c-.626.43-1.05 1.09-1.123 1.842l-.221 1.69.1-.01c.21.001.4.138.442.334.049.224-.11.442-.356.487l-.272.05c-.093-.16-.186-.319-.271-.482-.258-.59-.469-1.195-.452-1.84.008-.691.1-1.38.113-2.07 0-.315-.129-.601-.34-.821h-.003zM2.78 2.576c.293.315.49.706.549 1.138l.181 1.393a.851.851 0 0 0-.475.535h-.257V2.576h.002zm4.535 0V5.64H7.06a.851.851 0 0 0-.475-.534l.181-1.394c.059-.43.256-.823.549-1.138h.001zM5.048 5.378c.121.364.289.71.497 1.031-.198.055-.37.162-.497.306a1.03 1.03 0 0 0-.498-.306c.208-.321.376-.667.498-1.03zm-2.268.678h.257a.873.873 0 0 0 .635.59l.218.046a2.09 2.09 0 0 0-.09.607H2.778V6.056zm4.28 0h.256V7.3h-1.02c0-.21-.032-.414-.09-.607l.217-.045a.87.87 0 0 0 .635-.591h.001zm-2.727.731c.275.036.487.25.487.512h-.567c0-.178.03-.35.08-.512zm1.428 0c.051.163.08.334.08.512h-.567c0-.261.212-.476.487-.512zm-1.456.926h.516v.872c-.25-.24-.431-.538-.516-.872zm.97 0h.515a1.82 1.82 0 0 1-.516.872v-.872z" fill="#FFF" fill-rule="nonzero" fill-opacity=".77"/></g><g mask="url(#c)"><path d="M8.581 45.806c-1.543 0-2.636-.897-2.645-2.167H7.65c.076.41.463.695.945.695.54 0 .904-.387.904-.939 0-.58-.36-.97-.904-.97-.37 0-.698.179-.887.483H6.04l.288-3.925h4.54v1.473H7.794l-.1 1.472h.037c.234-.493.733-.81 1.435-.81 1.233 0 2.12.934 2.12 2.231 0 1.477-1.08 2.457-2.705 2.457zm6.182 0c-1.755 0-2.862-1.325-2.862-3.52 0-2.208 1.12-3.491 2.862-3.491 1.741 0 2.857 1.279 2.857 3.487 0 2.19-1.102 3.524-2.857 3.524zm0-1.5c.53 0 .913-.653.913-2.02 0-1.37-.382-1.991-.913-1.991s-.918.62-.918 1.992c0 1.366.387 2.02.918 2.02zm6.402 1.5c-1.754 0-2.861-1.325-2.861-3.52 0-2.208 1.12-3.491 2.861-3.491 1.742 0 2.857 1.279 2.857 3.487 0 2.19-1.102 3.524-2.857 3.524zm0-1.5c.531 0 .914-.653.914-2.02 0-1.37-.383-1.991-.914-1.991-.53 0-.918.62-.918 1.992 0 1.366.387 2.02.918 2.02z"/><path d="M88.724 16.66c0 1.219-.708 2.082-1.71 2.09v-1.354c.323-.06.548-.366.548-.746 0-.426-.305-.714-.741-.714-.458 0-.767.284-.767.714 0 .291.142.55.382.7v1.318l-3.098-.228v-3.584H84.5v2.426l1.162.078v-.028c-.388-.185-.64-.579-.64-1.133 0-.973.738-1.673 1.762-1.673 1.166 0 1.94.852 1.94 2.135zm0-4.88c0 1.386-1.046 2.26-2.779 2.26-1.743 0-2.756-.885-2.756-2.26 0-1.374 1.01-2.255 2.753-2.255 1.729 0 2.782.87 2.782 2.255zm-1.184 0c0-.419-.516-.72-1.595-.72-1.082 0-1.572.301-1.572.72 0 .42.49.725 1.572.725 1.08 0 1.595-.306 1.595-.725zm1.184-5.054c0 1.385-1.046 2.259-2.779 2.259-1.743 0-2.756-.885-2.756-2.26 0-1.374 1.01-2.255 2.753-2.255 1.729 0 2.782.87 2.782 2.256zm-1.184 0c0-.42-.516-.721-1.595-.721-1.082 0-1.572.302-1.572.72 0 .42.49.725 1.572.725 1.08 0 1.595-.305 1.595-.724z" fill="#FFF"/></g><g mask="url(#c)"><g transform="matrix(-1 0 0 1 62.706 6.149)"><use fill="#FFF" xlink:href="#d"/><use fill-opacity=".6" fill="url(#e)" xlink:href="#d"/><use fill="url(#f)" xlink:href="#d"/></g><path d="M52.734 22.715s-1.752-2.981-2.152-4.142c-.18-.523-.32-3.298-1.048-4.7-.345-.664-1.919-2.053-3.878-2.646-1.958-.592-4.793-.488-5.914-.536-1.03-.045-4.926.139-6.13.775-.572.302-1.665 1.723-2.332 4.24a253.306 253.306 0 0 1-1.465 5.253s-.42-2.524-.06-4.708c.359-2.184 1.308-3.755 1.308-3.755s2.407-3.006 3.942-3.958c.7-.434 3.086-1.981 5.891-2.293 1.227-.137 5.32-.328 8.255 1.278 1.54.842 4.877 3.536 6.33 6.35.816 1.582 1.225 4.09 1.055 5.872-.17 1.781-.591 2.629-.591 2.629s-.829-.74-1.623-.625c-.794.114-1.588.966-1.588.966z" fill="#D1D1D1"/><path d="M51.122 36.665s-.86 2.706-1.947 3.746c-.604.578-4.669 2.15-7.668 4.573-1.693 1.367-2.754 2.318-3.126 3.365-.371 1.048-.785 1.511-.785 1.511h-.664s-.059-.603-.36-1.258c-.51-1.106-1.395-.994-1.932-2.084-.538-1.09-.185-4.604-.261-5.01-.076-.405-.957-.731-.957-.731s-1.034 1.348-1.42 1.96c-.387.611-.57 1.64-.913 2.45-.153.362-.817 1.548-1.554 2.64-.738 1.092-2.402 2.645-2.402 2.645l35.561.313s.09-1.767-.857-3.049c-.947-1.28-2.032-1.935-3.214-2.752-2.958-2.046-4.24-1.667-5.037-2.433-.796-.765-1.355-2.859-1.355-2.859l-1.109-3.027z" fill="#989898"/></g></g><g transform="translate(4.811 4.839)"><mask id="h" fill="#fff"><use xlink:href="#g"/></mask><use fill="url(#b)" xlink:href="#g"/><path fill="#FFF" mask="url(#h)" d="M0-1.835h38.506v52.664H0z"/><g fill="#768468" mask="url(#h)"><path d="M66.78 44.58h23.23v1.092H66.78zM66.78 46.813h13.967v1.09H66.78z"/></g><g transform="translate(66.78 3.918)" mask="url(#h)"><rect fill="#929582" opacity=".703" width="10.101" height="10.41" rx="2.03"/><path d="M5.048 1.091c-.212.22-.34.506-.34.82.012.692.105 1.382.113 2.072.017.644-.195 1.249-.452 1.839-.086.163-.178.322-.27.482l-.273-.05c-.246-.045-.405-.263-.356-.487.043-.196.232-.334.443-.334l.1.01-.222-1.69c-.073-.752-.498-1.412-1.123-1.841a2.9 2.9 0 0 0-.34-.2v6h1.517c.113.56.452 1.051.928 1.387a.87.87 0 0 1 .276.275.866.866 0 0 1 .277-.275c.476-.336.815-.826.928-1.388h1.517v-6a2.9 2.9 0 0 0-.34.2c-.626.43-1.05 1.09-1.123 1.842l-.221 1.69.1-.01c.21.001.4.138.442.334.049.224-.11.442-.356.487l-.272.05c-.093-.16-.186-.319-.271-.482-.258-.59-.469-1.195-.452-1.84.008-.691.1-1.38.113-2.07 0-.315-.129-.601-.34-.821h-.003zM2.78 2.576c.293.315.49.706.549 1.138l.181 1.393a.851.851 0 0 0-.475.535h-.257V2.576h.002zm4.535 0V5.64H7.06a.851.851 0 0 0-.475-.534l.181-1.394c.059-.43.256-.823.549-1.138h.001zM5.048 5.378c.121.364.289.71.497 1.031-.198.055-.37.162-.497.306a1.03 1.03 0 0 0-.498-.306c.208-.321.376-.667.498-1.03zm-2.268.678h.257a.873.873 0 0 0 .635.59l.218.046a2.09 2.09 0 0 0-.09.607H2.778V6.056zm4.28 0h.256V7.3h-1.02c0-.21-.032-.414-.09-.607l.217-.045a.87.87 0 0 0 .635-.591h.001zm-2.727.731c.275.036.487.25.487.512h-.567c0-.178.03-.35.08-.512zm1.428 0c.051.163.08.334.08.512h-.567c0-.261.212-.476.487-.512zm-1.456.926h.516v.872c-.25-.24-.431-.538-.516-.872zm.97 0h.515a1.82 1.82 0 0 1-.516.872v-.872z" fill="#FFF" fill-rule="nonzero" fill-opacity=".77"/></g><g mask="url(#h)"><path d="M8.581 45.806c-1.543 0-2.636-.897-2.645-2.167H7.65c.076.41.463.695.945.695.54 0 .904-.387.904-.939 0-.58-.36-.97-.904-.97-.37 0-.698.179-.887.483H6.04l.288-3.925h4.54v1.473H7.794l-.1 1.472h.037c.234-.493.733-.81 1.435-.81 1.233 0 2.12.934 2.12 2.231 0 1.477-1.08 2.457-2.705 2.457zm6.182 0c-1.755 0-2.862-1.325-2.862-3.52 0-2.208 1.12-3.491 2.862-3.491 1.741 0 2.857 1.279 2.857 3.487 0 2.19-1.102 3.524-2.857 3.524zm0-1.5c.53 0 .913-.653.913-2.02 0-1.37-.382-1.991-.913-1.991s-.918.62-.918 1.992c0 1.366.387 2.02.918 2.02zm6.402 1.5c-1.754 0-2.861-1.325-2.861-3.52 0-2.208 1.12-3.491 2.861-3.491 1.742 0 2.857 1.279 2.857 3.487 0 2.19-1.102 3.524-2.857 3.524zm0-1.5c.531 0 .914-.653.914-2.02 0-1.37-.383-1.991-.914-1.991-.53 0-.918.62-.918 1.992 0 1.366.387 2.02.918 2.02z"/><path d="M88.724 16.66c0 1.219-.708 2.082-1.71 2.09v-1.354c.323-.06.548-.366.548-.746 0-.426-.305-.714-.741-.714-.458 0-.767.284-.767.714 0 .291.142.55.382.7v1.318l-3.098-.228v-3.584H84.5v2.426l1.162.078v-.028c-.388-.185-.64-.579-.64-1.133 0-.973.738-1.673 1.762-1.673 1.166 0 1.94.852 1.94 2.135zm0-4.88c0 1.386-1.046 2.26-2.779 2.26-1.743 0-2.756-.885-2.756-2.26 0-1.374 1.01-2.255 2.753-2.255 1.729 0 2.782.87 2.782 2.255zm-1.184 0c0-.419-.516-.72-1.595-.72-1.082 0-1.572.301-1.572.72 0 .42.49.725 1.572.725 1.08 0 1.595-.306 1.595-.725zm1.184-5.054c0 1.385-1.046 2.259-2.779 2.259-1.743 0-2.756-.885-2.756-2.26 0-1.374 1.01-2.255 2.753-2.255 1.729 0 2.782.87 2.782 2.256zm-1.184 0c0-.42-.516-.721-1.595-.721-1.082 0-1.572.302-1.572.72 0 .42.49.725 1.572.725 1.08 0 1.595-.305 1.595-.724z" fill="#FFF"/></g><g mask="url(#h)"><g transform="matrix(-1 0 0 1 62.706 6.149)"><use fill="#FFF" xlink:href="#i"/><use fill-opacity=".6" fill="url(#e)" xlink:href="#i"/><use fill="url(#f)" xlink:href="#i"/></g><path d="M52.734 22.715s-1.752-2.981-2.152-4.142c-.18-.523-.32-3.298-1.048-4.7-.345-.664-1.919-2.053-3.878-2.646-1.958-.592-4.793-.488-5.914-.536-1.03-.045-4.926.139-6.13.775-.572.302-1.665 1.723-2.332 4.24a253.306 253.306 0 0 1-1.465 5.253s-.42-2.524-.06-4.708c.359-2.184 1.308-3.755 1.308-3.755s2.407-3.006 3.942-3.958c.7-.434 3.086-1.981 5.891-2.293 1.227-.137 5.32-.328 8.255 1.278 1.54.842 4.877 3.536 6.33 6.35.816 1.582 1.225 4.09 1.055 5.872-.17 1.781-.591 2.629-.591 2.629s-.829-.74-1.623-.625c-.794.114-1.588.966-1.588.966z" fill="#D1D1D1"/><path d="M51.122 36.665s-.86 2.706-1.947 3.746c-.604.578-4.669 2.15-7.668 4.573-1.693 1.367-2.754 2.318-3.126 3.365-.371 1.048-.785 1.511-.785 1.511h-.664s-.059-.603-.36-1.258c-.51-1.106-1.395-.994-1.932-2.084-.538-1.09-.185-4.604-.261-5.01-.076-.405-.957-.731-.957-.731s-1.034 1.348-1.42 1.96c-.387.611-.57 1.64-.913 2.45-.153.362-.817 1.548-1.554 2.64-.738 1.092-2.402 2.645-2.402 2.645l35.561.313s.09-1.767-.857-3.049c-.947-1.28-2.032-1.935-3.214-2.752-2.958-2.046-4.24-1.667-5.037-2.433-.796-.765-1.355-2.859-1.355-2.859l-1.109-3.027z" fill="#989898"/></g><rect fill-opacity=".4" fill="#FFF" mask="url(#h)" width="92.435" height="50.333" rx=".923"/></g><g><mask id="k" fill="#fff"><use xlink:href="#j"/></mask><use fill="url(#b)" xlink:href="#j"/><path fill="#FFF" mask="url(#k)" d="M0-1.835h38.506v52.664H0z"/><rect stroke="#000" stroke-width=".6" opacity=".1" mask="url(#k)" x=".3" y=".3" width="91.835" height="49.733" rx=".923"/><g fill="#768468" mask="url(#k)"><path d="M66.78 44.58h23.23v1.092H66.78zM66.78 46.813h13.967v1.09H66.78z"/></g><g transform="translate(66.78 3.918)" mask="url(#k)"><rect fill="#929582" opacity=".703" width="10.101" height="10.41" rx="2.03"/><path d="M5.048 1.091c-.212.22-.34.506-.34.82.012.692.105 1.382.113 2.072.017.644-.195 1.249-.452 1.839-.086.163-.178.322-.27.482l-.273-.05c-.246-.045-.405-.263-.356-.487.043-.196.232-.334.443-.334l.1.01-.222-1.69c-.073-.752-.498-1.412-1.123-1.841a2.9 2.9 0 0 0-.34-.2v6h1.517c.113.56.452 1.051.928 1.387a.87.87 0 0 1 .276.275.866.866 0 0 1 .277-.275c.476-.336.815-.826.928-1.388h1.517v-6a2.9 2.9 0 0 0-.34.2c-.626.43-1.05 1.09-1.123 1.842l-.221 1.69.1-.01c.21.001.4.138.442.334.049.224-.11.442-.356.487l-.272.05c-.093-.16-.186-.319-.271-.482-.258-.59-.469-1.195-.452-1.84.008-.691.1-1.38.113-2.07 0-.315-.129-.601-.34-.821h-.003zM2.78 2.576c.293.315.49.706.549 1.138l.181 1.393a.851.851 0 0 0-.475.535h-.257V2.576h.002zm4.535 0V5.64H7.06a.851.851 0 0 0-.475-.534l.181-1.394c.059-.43.256-.823.549-1.138h.001zM5.048 5.378c.121.364.289.71.497 1.031-.198.055-.37.162-.497.306a1.03 1.03 0 0 0-.498-.306c.208-.321.376-.667.498-1.03zm-2.268.678h.257a.873.873 0 0 0 .635.59l.218.046a2.09 2.09 0 0 0-.09.607H2.778V6.056zm4.28 0h.256V7.3h-1.02c0-.21-.032-.414-.09-.607l.217-.045a.87.87 0 0 0 .635-.591h.001zm-2.727.731c.275.036.487.25.487.512h-.567c0-.178.03-.35.08-.512zm1.428 0c.051.163.08.334.08.512h-.567c0-.261.212-.476.487-.512zm-1.456.926h.516v.872c-.25-.24-.431-.538-.516-.872zm.97 0h.515a1.82 1.82 0 0 1-.516.872v-.872z" fill="#FFF" fill-rule="nonzero" fill-opacity=".77"/></g><g mask="url(#k)"><path d="M8.581 45.806c-1.543 0-2.636-.897-2.645-2.167H7.65c.076.41.463.695.945.695.54 0 .904-.387.904-.939 0-.58-.36-.97-.904-.97-.37 0-.698.179-.887.483H6.04l.288-3.925h4.54v1.473H7.794l-.1 1.472h.037c.234-.493.733-.81 1.435-.81 1.233 0 2.12.934 2.12 2.231 0 1.477-1.08 2.457-2.705 2.457zm6.182 0c-1.755 0-2.862-1.325-2.862-3.52 0-2.208 1.12-3.491 2.862-3.491 1.741 0 2.857 1.279 2.857 3.487 0 2.19-1.102 3.524-2.857 3.524zm0-1.5c.53 0 .913-.653.913-2.02 0-1.37-.382-1.991-.913-1.991s-.918.62-.918 1.992c0 1.366.387 2.02.918 2.02zm6.402 1.5c-1.754 0-2.861-1.325-2.861-3.52 0-2.208 1.12-3.491 2.861-3.491 1.742 0 2.857 1.279 2.857 3.487 0 2.19-1.102 3.524-2.857 3.524zm0-1.5c.531 0 .914-.653.914-2.02 0-1.37-.383-1.991-.914-1.991-.53 0-.918.62-.918 1.992 0 1.366.387 2.02.918 2.02z"/><path d="M88.724 16.66c0 1.219-.708 2.082-1.71 2.09v-1.354c.323-.06.548-.366.548-.746 0-.426-.305-.714-.741-.714-.458 0-.767.284-.767.714 0 .291.142.55.382.7v1.318l-3.098-.228v-3.584H84.5v2.426l1.162.078v-.028c-.388-.185-.64-.579-.64-1.133 0-.973.738-1.673 1.762-1.673 1.166 0 1.94.852 1.94 2.135zm0-4.88c0 1.386-1.046 2.26-2.779 2.26-1.743 0-2.756-.885-2.756-2.26 0-1.374 1.01-2.255 2.753-2.255 1.729 0 2.782.87 2.782 2.255zm-1.184 0c0-.419-.516-.72-1.595-.72-1.082 0-1.572.301-1.572.72 0 .42.49.725 1.572.725 1.08 0 1.595-.306 1.595-.725zm1.184-5.054c0 1.385-1.046 2.259-2.779 2.259-1.743 0-2.756-.885-2.756-2.26 0-1.374 1.01-2.255 2.753-2.255 1.729 0 2.782.87 2.782 2.256zm-1.184 0c0-.42-.516-.721-1.595-.721-1.082 0-1.572.302-1.572.72 0 .42.49.725 1.572.725 1.08 0 1.595-.305 1.595-.724z" fill="#FFF"/></g><g mask="url(#k)"><g transform="matrix(-1 0 0 1 62.706 6.149)"><use fill="#FFF" xlink:href="#l"/><use fill-opacity=".6" fill="url(#e)" xlink:href="#l"/><use fill="url(#f)" xlink:href="#l"/></g><path d="M52.734 22.715s-1.752-2.981-2.152-4.142c-.18-.523-.32-3.298-1.048-4.7-.345-.664-1.919-2.053-3.878-2.646-1.958-.592-4.793-.488-5.914-.536-1.03-.045-4.926.139-6.13.775-.572.302-1.665 1.723-2.332 4.24a253.306 253.306 0 0 1-1.465 5.253s-.42-2.524-.06-4.708c.359-2.184 1.308-3.755 1.308-3.755s2.407-3.006 3.942-3.958c.7-.434 3.086-1.981 5.891-2.293 1.227-.137 5.32-.328 8.255 1.278 1.54.842 4.877 3.536 6.33 6.35.816 1.582 1.225 4.09 1.055 5.872-.17 1.781-.591 2.629-.591 2.629s-.829-.74-1.623-.625c-.794.114-1.588.966-1.588.966z" fill="#D1D1D1"/><path d="M51.122 36.665s-.86 2.706-1.947 3.746c-.604.578-4.669 2.15-7.668 4.573-1.693 1.367-2.754 2.318-3.126 3.365-.371 1.048-.785 1.511-.785 1.511h-.664s-.059-.603-.36-1.258c-.51-1.106-1.395-.994-1.932-2.084-.538-1.09-.185-4.604-.261-5.01-.076-.405-.957-.731-.957-.731s-1.034 1.348-1.42 1.96c-.387.611-.57 1.64-.913 2.45-.153.362-.817 1.548-1.554 2.64-.738 1.092-2.402 2.645-2.402 2.645l35.561.313s.09-1.767-.857-3.049c-.947-1.28-2.032-1.935-3.214-2.752-2.958-2.046-4.24-1.667-5.037-2.433-.796-.765-1.355-2.859-1.355-2.859l-1.109-3.027z" fill="#989898"/></g></g></g></svg>